<svg width="14" height="5" viewBox="0 0 14 5" fill="none" xmlns="http://www.w3.org/2000/svg">
<path d="M10.222 4.95C10.594 4.182 10.942 3.606 11.266 3.222H0.772V2.466H11.266C10.942 2.082 10.594 1.506 10.222 0.738H10.852C11.608 1.614 12.4 2.262 13.228 2.682V3.006C12.4 3.426 11.608 4.074 10.852 4.95H10.222Z" fill="white"/>
<path d="M10.222 4.95L9.32202 4.51407L8.62649 5.95H10.222V4.95ZM11.266 3.222L12.0303 3.86687L13.4182 2.222H11.266V3.222ZM0.772 3.222H-0.228V4.222H0.772V3.222ZM0.772 2.466V1.466H-0.228V2.466H0.772ZM11.266 2.466V3.466H13.4182L12.0303 1.82113L11.266 2.466ZM10.222 0.738V-0.262001H8.62649L9.32202 1.17393L10.222 0.738ZM10.852 0.738L11.6091 0.08465L11.3099 -0.262001H10.852V0.738ZM13.228 2.682H14.228V2.06795L13.6804 1.79017L13.228 2.682ZM13.228 3.006L13.6804 3.89783L14.228 3.62005V3.006H13.228ZM10.852 4.95V5.95H11.3099L11.6091 5.60335L10.852 4.95ZM11.122 5.38593C11.4791 4.6486 11.7846 4.15811 12.0303 3.86687L10.5017 2.57713C10.0994 3.05389 9.70887 3.7154 9.32202 4.51407L11.122 5.38593ZM11.266 2.222H0.772V4.222H11.266V2.222ZM1.772 3.222V2.466H-0.228V3.222H1.772ZM0.772 3.466H11.266V1.466H0.772V3.466ZM12.0303 1.82113C11.7846 1.52989 11.4791 1.0394 11.122 0.302071L9.32202 1.17393C9.70887 1.9726 10.0994 2.63411 10.5017 3.11087L12.0303 1.82113ZM10.222 1.738H10.852V-0.262001H10.222V1.738ZM10.0949 1.39135C10.9158 2.34246 11.8067 3.08237 12.7756 3.57383L13.6804 1.79017C12.9933 1.44163 12.3002 0.88554 11.6091 0.08465L10.0949 1.39135ZM12.228 2.682V3.006H14.228V2.682H12.228ZM12.7756 2.11417C11.8067 2.60563 10.9158 3.34554 10.0949 4.29665L11.6091 5.60335C12.3002 4.80246 12.9933 4.24637 13.6804 3.89783L12.7756 2.11417ZM10.852 3.95H10.222V5.95H10.852V3.95Z" fill="black"/>
</svg>
